# xmcd
#
# Track frame offsets:
#	150
#	9562
#	21812
#	31215
#	42570
#	54655
#	64997
#	78635
#	89572
#	98472
#
# Disc length: 1457 seconds
#
# Revision: 2
# Processed by: cddbd v1.5.2PL0 Copyright (c) Steve Scherf et al.
# Submitted via: dBpowerAMP V4.0
#
DISCID=7c05af0a
DTITLE=Burl Ives - A Little Bitty Tear
DYEAR=1994
DGENRE=Country
TTITLE0=A Little Bitty Tear
TTITLE1=Call Me Mr In- Between
TTITLE2=Blue Tail Fly
TTITLE3=Goober Peas
TTITLE4=Funny Way Of Laughing
TTITLE5=My Gal Sal
TTITLE6=The Long Black Veil
TTITLE7=Pearly Shells
TTITLE8=Polly Wolly Doodle
TTITLE9=Waltzing Matilda
EXTD=
EXTT0=
EXTT1=
EXTT2=
EXTT3=
EXTT4=
EXTT5=
EXTT6=
EXTT7=
EXTT8=
EXTT9=
PLAYORDER=
